<?xml version="1.0" encoding="UTF-8" standalone="no"?>
<!-- Created with Inkscape (http://www.inkscape.org/) -->

<svg
   width="1040pt"
   height="1040pt"
   viewBox="0 0 465.3981 465.3981"
   version="1.1"
   id="svg1"
   xmlns="http://www.w3.org/2000/svg"
   xmlns:svg="http://www.w3.org/2000/svg">
  <defs
     id="defs1" />
  <g
     id="layer2">
    <path
       d="m 416.4875,143.95907 -1.63878,6.99216 q -9.83272,3.93309 -15.29535,5.68112 -5.46262,1.8573 -11.03449,1.8573 -8.7402,0 -13.11029,-4.47935 -4.3701,-4.58861 -4.3701,-11.253 0,-2.40356 0.43701,-5.24412 0.43701,-2.94982 1.42028,-6.88291 l 10.70674,-40.751155 q 1.20178,-4.697855 1.85729,-8.52169 0.76477,-3.823835 0.76477,-6.118137 0,-7.319913 -3.49608,-11.580758 -3.49608,-4.260845 -10.37898,-4.260845 -6.6644,0 -14.96759,4.370097 -8.30318,4.370098 -15.62309,12.673283 l -18.46367,80.191285 h -20.32095 l 16.27861,-70.795575 q 0.54627,-2.622059 1.52954,-7.538418 1.09252,-5.025612 1.09252,-8.084681 0,-6.118136 -2.07579,-8.193933 -2.0758,-2.075796 -8.30319,-2.075796 -2.40355,0 -6.11814,0.87402 -3.71458,0.764767 -5.79038,1.311029 l 1.63879,-6.992156 q 8.52169,-3.823835 15.07684,-5.681127 6.55514,-1.857291 11.253,-1.857291 8.63094,0 12.34552,4.697854 3.71459,4.697855 3.93309,13.001041 h 0.65552 q 12.01776,-9.614215 20.75796,-14.202817 8.74019,-4.697855 19.88394,-4.697855 10.48824,0 16.38787,6.118136 5.89963,6.008884 5.89963,15.841604 0,1.966544 -0.65551,6.992156 -0.54627,5.025612 -1.8573,9.941972 l -9.1772,35.070037 q -0.98327,3.49607 -1.96654,8.08468 -0.87402,4.47935 -0.87402,6.99215 0,6.22739 2.73131,8.52169 2.73131,2.18505 8.9587,2.18505 2.07579,0 5.89963,-0.65551 3.93309,-0.76477 6.00888,-1.52954 z"
       id="text3"
       style="font-style:italic;font-size:223.749px;font-family:Georgia;-inkscape-font-specification:'Georgia, Italic';stroke-width:0.335624"
       aria-label="n" />
  </g>
</svg>
