<?xml version="1.0" encoding="UTF-8" standalone="no"?>
<!-- Created with Inkscape (http://www.inkscape.org/) -->

<svg
   width="1040pt"
   height="1040pt"
   viewBox="0 0 465.3981 465.3981"
   version="1.1"
   id="svg1"
   xmlns="http://www.w3.org/2000/svg"
   xmlns:svg="http://www.w3.org/2000/svg">
  <defs
     id="defs1" />
  <g
     id="layer1">
    <path
       d="m 182.54336,256.7595 q 6.84672,-5.23572 11.27694,-11.67969 4.43023,-6.44397 4.43023,-13.29068 0,-8.05496 -5.23572,-14.09618 -4.83298,-6.04122 -15.70717,-6.04122 -11.67969,0 -19.33191,9.2632 -7.65221,9.26321 -8.4577,24.97038 L 58.094234,235.41386 q 2.819236,-27.78961 14.498927,-47.92701 11.679692,-20.1374 28.997859,-33.42808 17.72091,-13.29069 39.06655,-19.33191 21.74839,-6.44396 44.70503,-6.44396 20.94289,0 41.48304,5.23572 20.9429,5.23572 37.05281,16.51267 16.10992,10.87419 26.17862,28.5951 10.0687,17.72091 10.0687,42.69129 0,17.72091 -4.83297,31.41434 -4.43023,13.29069 -12.48519,23.76213 -7.65221,10.47145 -17.72091,18.92916 -9.66595,8.45771 -20.54015,16.10992 l -41.88579,29.80335 h 98.27051 v 80.14685 H 69.773925 v -74.50838 z"
       id="text2"
       style="font-weight:900;font-size:402.748px;font-family:'Avenir Next';-inkscape-font-specification:'Avenir Next, Heavy';stroke-width:0.335624"
       aria-label="2" />
  </g>
</svg>
