<?xml version="1.0" encoding="UTF-8" standalone="no"?>
<!-- Created with Inkscape (http://www.inkscape.org/) -->

<svg
   width="1040pt"
   height="1040pt"
   viewBox="0 0 465.3981 465.3981"
   version="1.1"
   id="svg1"
   inkscape:version="1.4.2 (ebf0e940, 2025-05-08)"
   sodipodi:docname="TwoToTheN.svg"
   inkscape:export-filename="TwoToTheNlayer2.svg"
   inkscape:export-xdpi="96"
   inkscape:export-ydpi="96"
   xmlns:inkscape="http://www.inkscape.org/namespaces/inkscape"
   xmlns:sodipodi="http://sodipodi.sourceforge.net/DTD/sodipodi-0.dtd"
   xmlns="http://www.w3.org/2000/svg"
   xmlns:svg="http://www.w3.org/2000/svg">
  <sodipodi:namedview
     id="namedview1"
     pagecolor="#ffffff"
     bordercolor="#000000"
     borderopacity="0.25"
     inkscape:showpageshadow="2"
     inkscape:pageopacity="0.0"
     inkscape:pagecheckerboard="0"
     inkscape:deskcolor="#d1d1d1"
     inkscape:document-units="pt"
     inkscape:zoom="0.70710678"
     inkscape:cx="783.47431"
     inkscape:cy="666.80169"
     inkscape:window-width="2024"
     inkscape:window-height="1186"
     inkscape:window-x="0"
     inkscape:window-y="31"
     inkscape:window-maximized="0"
     inkscape:current-layer="layer2" />
  <defs
     id="defs1">
    <rect
       x="264.45794"
       y="237.58788"
       width="899.43983"
       height="939.03781"
       id="rect1" />
  </defs>
  <g
     inkscape:label="Layer 1"
     inkscape:groupmode="layer"
     id="layer1">
    <path
       d="m 182.54336,256.7595 q 6.84672,-5.23572 11.27694,-11.67969 4.43023,-6.44397 4.43023,-13.29068 0,-8.05496 -5.23572,-14.09618 -4.83298,-6.04122 -15.70717,-6.04122 -11.67969,0 -19.33191,9.2632 -7.65221,9.26321 -8.4577,24.97038 L 58.094234,235.41386 q 2.819236,-27.78961 14.498927,-47.92701 11.679692,-20.1374 28.997859,-33.42808 17.72091,-13.29069 39.06655,-19.33191 21.74839,-6.44396 44.70503,-6.44396 20.94289,0 41.48304,5.23572 20.9429,5.23572 37.05281,16.51267 16.10992,10.87419 26.17862,28.5951 10.0687,17.72091 10.0687,42.69129 0,17.72091 -4.83297,31.41434 -4.43023,13.29069 -12.48519,23.76213 -7.65221,10.47145 -17.72091,18.92916 -9.66595,8.45771 -20.54015,16.10992 l -41.88579,29.80335 h 98.27051 v 80.14685 H 69.773925 v -74.50838 z"
       id="text2"
       style="font-weight:900;font-size:402.748px;font-family:'Avenir Next';-inkscape-font-specification:'Avenir Next, Heavy';stroke-width:0.335624"
       aria-label="2" />
  </g>
  <g
     inkscape:groupmode="layer"
     id="layer2"
     inkscape:label="Layer 2">
    <path
       d="m 416.4875,143.95907 -1.63878,6.99216 q -9.83272,3.93309 -15.29535,5.68112 -5.46262,1.8573 -11.03449,1.8573 -8.7402,0 -13.11029,-4.47935 -4.3701,-4.58861 -4.3701,-11.253 0,-2.40356 0.43701,-5.24412 0.43701,-2.94982 1.42028,-6.88291 l 10.70674,-40.751155 q 1.20178,-4.697855 1.85729,-8.52169 0.76477,-3.823835 0.76477,-6.118137 0,-7.319913 -3.49608,-11.580758 -3.49608,-4.260845 -10.37898,-4.260845 -6.6644,0 -14.96759,4.370097 -8.30318,4.370098 -15.62309,12.673283 l -18.46367,80.191285 h -20.32095 l 16.27861,-70.795575 q 0.54627,-2.622059 1.52954,-7.538418 1.09252,-5.025612 1.09252,-8.084681 0,-6.118136 -2.07579,-8.193933 -2.0758,-2.075796 -8.30319,-2.075796 -2.40355,0 -6.11814,0.87402 -3.71458,0.764767 -5.79038,1.311029 l 1.63879,-6.992156 q 8.52169,-3.823835 15.07684,-5.681127 6.55514,-1.857291 11.253,-1.857291 8.63094,0 12.34552,4.697854 3.71459,4.697855 3.93309,13.001041 h 0.65552 q 12.01776,-9.614215 20.75796,-14.202817 8.74019,-4.697855 19.88394,-4.697855 10.48824,0 16.38787,6.118136 5.89963,6.008884 5.89963,15.841604 0,1.966544 -0.65551,6.992156 -0.54627,5.025612 -1.8573,9.941972 l -9.1772,35.070037 q -0.98327,3.49607 -1.96654,8.08468 -0.87402,4.47935 -0.87402,6.99215 0,6.22739 2.73131,8.52169 2.73131,2.18505 8.9587,2.18505 2.07579,0 5.89963,-0.65551 3.93309,-0.76477 6.00888,-1.52954 z"
       id="text3"
       style="font-style:italic;font-size:223.749px;font-family:Georgia;-inkscape-font-specification:'Georgia, Italic';stroke-width:0.335624"
       aria-label="n" />
  </g>
</svg>
